<?xml version="1.0" encoding="utf-8"?>
<!-- Generator: Adobe Illustrator 16.0.0, SVG Export Plug-In . SVG Version: 6.00 Build 0)  -->
<!DOCTYPE svg PUBLIC "-//W3C//DTD SVG 1.0//EN" "http://www.w3.org/TR/2001/REC-SVG-20010904/DTD/svg10.dtd">
<svg version="1.0" id="Layer_1" xmlns="http://www.w3.org/2000/svg" xmlns:xlink="http://www.w3.org/1999/xlink" x="0px" y="0px"
	 width="180px" height="180px" viewBox="0 0 180 180" enable-background="new 0 0 180 180" xml:space="preserve">
<g opacity="0.5">
	<rect x="64.397" y="68.646" fill="#FFFFFF" width="38.999" height="8.148"/>
	<rect x="64.397" y="105.2" fill="#FFFFFF" width="38.999" height="8.149"/>
	<rect x="64.513" y="86.807" fill="#FFFFFF" width="38.999" height="8.382"/>
	<path fill="#FFFFFF" d="M90,0C40.295,0,0,40.294,0,90c0,49.705,40.295,90,90,90c49.705,0,90-40.295,90-90
		C180,40.294,139.705,0,90,0z M116,123.687c0,5.144-4.169,9.313-9.312,9.313H60.312c-5.143,0-9.312-4.17-9.312-9.313V58.313
		C51,53.17,55.169,49,60.312,49h46.375c5.143,0,9.312,4.17,9.312,9.313V123.687z M147.498,66H140v7c0,1.933-1.567,3.5-3.5,3.5
		S133,74.933,133,73v-7h-6.502c-1.933,0-3.5-1.567-3.5-3.5s1.567-3.5,3.5-3.5H133v-7c0-1.933,1.567-3.5,3.5-3.5s3.5,1.567,3.5,3.5v7
		h7.498c1.933,0,3.5,1.567,3.5,3.5S149.43,66,147.498,66z"/>
</g>
</svg>
