<?xml version="1.0" encoding="utf-8"?>
<!-- Generator: Adobe Illustrator 16.0.0, SVG Export Plug-In . SVG Version: 6.00 Build 0)  -->
<!DOCTYPE svg PUBLIC "-//W3C//DTD SVG 1.0//EN" "http://www.w3.org/TR/2001/REC-SVG-20010904/DTD/svg10.dtd">
<svg version="1.0" id="Layer_1" xmlns="http://www.w3.org/2000/svg" xmlns:xlink="http://www.w3.org/1999/xlink" x="0px" y="0px"
	 width="180px" height="180px" viewBox="0 0 180 180" enable-background="new 0 0 180 180" xml:space="preserve">
<g opacity="0.5">
	<path fill="#FFFFFF" d="M81.431,60.018c-11.824,0-21.412,9.588-21.412,21.416s10.539,22.367,22.365,22.367
		c11.828,0,21.416-9.589,21.416-21.416C103.8,70.557,93.261,60.018,81.431,60.018z"/>
	<path fill="#FFFFFF" d="M90,0C40.294,0,0,40.294,0,90c0,49.705,40.295,90,90,90s90-40.295,90-90C180,40.294,139.705,0,90,0z
		 M128.398,123.396l-4.713,4.71c-1.857,1.859-4.871,1.859-6.73,0l-18.996-18.997c-4.574,2.672-9.895,4.21-15.574,4.21
		c-17.082,0-31.885-14.801-31.885-31.885S64.349,50.5,81.431,50.5c17.086,0,31.889,14.802,31.889,31.885
		c0,5.881-1.641,11.377-4.49,16.058l18.895,18.895C129.583,119.195,130.257,121.535,128.398,123.396z"/>
</g>
</svg>
